<?xml version="1.0" encoding="UTF-8"?>
<!DOCTYPE svg PUBLIC "-//W3C//DTD SVG 1.0//EN" "http://www.w3.org/TR/2001/REC-SVG-20010904/DTD/svg10.dtd">
<!-- Creator: CorelDRAW 2018 (64-Bit Evaluation Version) -->
<svg xmlns="http://www.w3.org/2000/svg" xml:space="preserve" width="54.2171mm" height="38.458mm" version="1.0" style="shape-rendering:geometricPrecision; text-rendering:geometricPrecision; image-rendering:optimizeQuality; fill-rule:evenodd; clip-rule:evenodd"
viewBox="0 0 3572.28 2533.94"
 xmlns:xlink="http://www.w3.org/1999/xlink">
 <defs>
  <style type="text/css">
   <![CDATA[
    .fil0 {fill:#B2B3B3;fill-rule:nonzero}
    .fil1 {fill:#B2B3B3;fill-rule:nonzero}
    .fil2 {fill:url(#id0)}
   ]]>
  </style>
  <linearGradient id="id0" gradientUnits="userSpaceOnUse" x1="1002.02" y1="753.03" x2="2367.44" y2="753.03">
   <stop offset="0" style="stop-opacity:1; stop-color:#FCE464"/>
   <stop offset="0.321569" style="stop-opacity:1; stop-color:#F7CC3A"/>
   <stop offset="0.490196" style="stop-opacity:1; stop-color:#FCE37D"/>
   <stop offset="1" style="stop-opacity:1; stop-color:#F2B30F"/>
  </linearGradient>
 </defs>
 <g id="Layer_x0020_1">
  <metadata id="CorelCorpID_0Corel-Layer"/>
  <g id="_2877006522848">
   <path class="fil0" d="M86.49 1985.56c0,15 5.15,30.22 15.46,45.65 10.32,15.44 36.69,38.31 79.15,68.6 81.98,57.88 136.49,104.59 163.52,140.13 27.01,35.55 40.54,73.39 40.54,113.59 0,56.98 -22.08,101.29 -66.22,132.92 -44.15,31.65 -92.51,47.48 -145.05,47.48 -37.25,0 -75.46,-7.74 -114.65,-23.21 -39.19,-15.46 -58.79,-31.76 -58.79,-48.88 0,-4.2 0.45,-12.08 1.34,-23.64 0.91,-11.56 1.36,-26.07 1.36,-43.48 0,-6.01 -0.53,-13.28 -1.57,-21.85 -1.06,-8.55 -1.58,-14.19 -1.58,-16.89 0,-11.11 6.54,-16.66 19.62,-16.66 14.56,0 22.74,11.11 24.53,33.33 3.6,36.64 16.51,65.17 38.74,85.58 22.22,20.43 53.01,30.64 92.36,30.64 39.63,0 72.44,-11.17 98.42,-33.51 25.97,-22.35 38.95,-51.5 38.95,-87.49 0,-21.59 -8.75,-44.52 -26.28,-68.82 -17.51,-24.29 -63.4,-62.82 -137.69,-115.58 -30.62,-21.63 -54.71,-40.03 -72.29,-55.18 -17.57,-15.17 -32.29,-33.12 -44.15,-53.84 -11.88,-20.73 -17.8,-44.3 -17.8,-70.73 0,-42.95 19.43,-78.53 58.34,-106.76 38.87,-28.23 83.69,-42.36 134.47,-42.36 28.83,0 59.69,7.14 92.56,21.4 32.9,14.28 49.34,31.01 49.34,50.23 0,2.7 -0.17,6.98 -0.47,12.84 -0.3,5.85 -0.43,14.5 -0.43,25.9 0,3.02 0.59,8.87 1.79,17.57 0,19.82 -6.83,29.73 -20.49,29.73 -4.85,0 -9.63,-2.32 -14.34,-6.96 -4.7,-4.64 -7.05,-9.65 -7.05,-15.03 0,-29.31 -9.96,-51.83 -29.83,-67.53 -19.9,-15.7 -44.2,-23.55 -72.92,-23.55 -32.6,0 -60.56,8.99 -83.88,26.98 -23.33,17.99 -35.01,37.79 -35.01,59.37z"/>
   <path class="fil0" d="M482.92 1944.23c0,-24 -16.22,-36.02 -48.67,-36.02 -20.41,0 -30.63,-6.75 -30.63,-20.25 0,-12.92 10.23,-19.38 30.63,-19.38 11.72,0 24.79,1.28 39.21,3.82 14.4,2.58 26.57,3.84 36.48,3.84 8.41,0 22.98,-1.71 43.7,-5.18 20.7,-3.45 45.49,-5.18 74.32,-5.18 70.87,0 125.3,16.29 163.3,48.88 37.98,32.59 56.97,71.4 56.97,116.45 0,35.43 -8.8,62.61 -26.39,81.53 -17.61,18.92 -41.96,35.74 -73.1,50.45 -31.13,14.72 -71.82,22.07 -122.05,22.07 -29.19,0 -43.78,-8.6 -43.78,-25.84 0,-4.45 2.02,-8.09 6.09,-10.91 4.07,-2.83 9.56,-4.23 16.49,-4.23 1.5,0 6.48,0.3 14.9,0.89 8.43,0.61 16.1,0.9 23.03,0.9 32.52,0 59.39,-10.05 80.62,-30.18 21.23,-20.12 31.84,-48.2 31.84,-84.23 0,-33.95 -13.09,-63.81 -39.28,-89.66 -26.18,-25.81 -61.41,-38.73 -105.65,-38.73 -15.96,0 -27.31,2.17 -34.08,6.52 -6.79,4.36 -11,10.64 -12.66,18.88 -1.65,8.26 -2.48,21.53 -2.48,39.82l0 478.11c0,23.38 15.17,35.09 45.51,35.09 14.7,0 24.54,1.94 29.49,5.79 4.96,3.87 7.43,9.51 7.43,16.94 0,12.17 -12.28,18.26 -36.86,18.26 -7.8,0 -22.41,-2.86 -43.84,-8.55 -21.43,-5.71 -35.14,-8.57 -41.13,-8.57 -8.99,0 -22.26,2.86 -39.78,8.57 -17.55,5.69 -29.77,8.55 -36.66,8.55 -25.77,0 -38.68,-7.56 -38.68,-22.69 0,-4.16 1.44,-7.63 4.29,-10.47 2.84,-2.81 12.62,-4.9 29.28,-6.25 16.67,-1.36 27.84,-6.9 33.55,-16.66 5.71,-9.75 8.57,-21.24 8.57,-34.44l0 -487.93z"/>
   <path class="fil0" d="M1396.03 2437.57c0,10.21 2.54,19.36 7.66,27.46 5.09,8.1 15.31,14.25 30.63,18.45 15.31,4.2 24.46,7.97 27.47,11.31 3,3.35 4.51,7.46 4.51,12.33 0,4.26 -3.15,8.36 -9.44,12.33 -6.29,3.95 -14.23,5.91 -23.82,5.91 -7.48,0 -19.85,-1.42 -37.08,-4.28 -17.24,-2.85 -28.85,-4.27 -34.85,-4.27 -8.99,0 -21.35,1.26 -37.1,3.82 -15.73,2.54 -26.89,3.82 -33.48,3.82 -21.59,0 -32.36,-6.54 -32.36,-19.6 0,-7.58 1.87,-12.61 5.63,-15.03 3.76,-2.43 10.73,-4.47 20.94,-6.13 10.21,-1.65 18.62,-5.55 25.24,-11.72 6.6,-6.16 9.91,-19.47 9.91,-39.93l0 -270.61c0,-9.63 -2.95,-17.14 -8.82,-22.55 -5.87,-5.42 -19.21,-8.13 -40,-8.13l-197.92 0c-16.89,0 -27.65,-1.78 -32.32,-5.34 -4.67,-3.56 -7.01,-8.91 -7.01,-16.04 0,-7.13 3.09,-12.33 9.27,-15.6 6.17,-3.27 17.39,-4.9 33.66,-4.9l213.76 0c11.75,0 19.29,-1.87 22.59,-5.62 3.31,-3.74 4.97,-10.85 4.97,-21.33 0,-66.2 -0.83,-106.26 -2.47,-120.2 -1.65,-13.94 -14.2,-24.03 -37.62,-30.34 -12.31,-3.64 -19.9,-7.43 -22.76,-11.38 -2.85,-3.95 -4.26,-8.66 -4.26,-14.12 0,-3.64 2.23,-7.21 6.73,-10.71 4.49,-3.5 9.89,-5.24 16.18,-5.24 11.69,0 25.92,1.28 42.72,3.84 16.78,2.56 30.1,3.82 39.99,3.82 10.19,0 22.69,-1.13 37.54,-3.37 14.82,-2.26 28.99,-3.39 42.48,-3.39 14.37,0 21.57,5.93 21.57,17.79 0,7.6 -1.8,12.63 -5.4,15.06 -3.6,2.44 -10.52,4.54 -20.73,6.34 -10.21,1.81 -18.77,6.08 -25.67,12.83 -6.91,6.75 -10.36,20.93 -10.36,42.54l0 472.19zm-385.16 0c0,9.32 2.48,17.7 7.43,25.2 4.96,7.5 15.11,13.73 30.42,18.69 15.32,4.95 24.54,9.24 27.7,12.89 3.15,3.65 4.73,7.91 4.73,12.77 0,4.26 -3.14,8.36 -9.45,12.33 -6.29,3.95 -14.23,5.91 -23.81,5.91 -7.49,0 -19.85,-1.42 -37.08,-4.28 -17.23,-2.85 -28.85,-4.27 -34.85,-4.27 -8.99,0 -21.35,1.26 -37.08,3.82 -15.73,2.54 -26.9,3.82 -33.48,3.82 -21.58,0 -32.36,-6.54 -32.36,-19.6 0,-7.58 1.79,-12.61 5.4,-15.03 3.6,-2.43 10.36,-4.47 20.27,-6.12 9.91,-1.65 18.09,-5.55 24.54,-11.7 6.46,-6.16 9.69,-19.43 9.69,-39.84l0 -473.99c0,-10.19 -2.26,-19.41 -6.76,-27.67 -4.51,-8.26 -14.2,-14.41 -29.05,-18.45 -14.88,-4.07 -23.82,-8.05 -26.82,-12.02 -3,-3.95 -4.49,-8.68 -4.49,-14.15 0,-3.64 2.23,-7.21 6.74,-10.71 4.49,-3.5 9.88,-5.26 16.18,-5.26 11.68,0 25.93,1.28 42.7,3.84 16.78,2.56 30.12,3.82 40,3.82 10.19,0 22.71,-1.13 37.53,-3.37 14.84,-2.26 29,-3.39 42.48,-3.39 14.39,0 21.59,5.93 21.59,17.79 0,7.6 -1.88,12.71 -5.63,15.29 -3.76,2.58 -10.75,5.01 -20.95,7.25 -10.22,2.25 -18.69,6.74 -25.45,13.5 -6.75,6.75 -10.14,20.33 -10.14,40.73l0 472.19z"/>
   <path class="fil0" d="M1811.01 2155.53c2.69,-1.2 5.53,-4.2 8.52,-9.01l11.23 -18.43c76.86,-122.9 115.3,-191.39 115.3,-205.49 0,-4.2 -1.5,-7.49 -4.49,-9.9 -3.02,-2.39 -11.04,-3.9 -24.1,-4.49 -13.07,-0.59 -21.57,-2.68 -25.45,-6.25 -3.91,-3.57 -5.86,-8.32 -5.86,-14.26 0,-6.54 3.76,-11.66 11.3,-15.37 7.52,-3.71 15.79,-5.57 24.81,-5.57 7.83,0 19.72,1.36 35.67,4.06 15.95,2.69 28.14,4.05 36.57,4.05 7.54,0 18.43,-1.2 32.73,-3.6 14.31,-2.4 24.91,-3.6 31.83,-3.6 7.52,0 14.53,1.79 21.01,5.35 6.46,3.56 9.69,8.16 9.69,13.82 0,14.54 -11.12,21.84 -33.32,21.84 -15.33,0 -29,3.74 -41,11.23 -12.01,7.5 -24.78,22.8 -38.29,45.88l-23.42 38.67c-84.09,137.94 -126.14,212.6 -126.14,224l0 192.5c0,29.7 2.03,47.83 6.09,54.44 4.05,6.6 12.31,11.39 24.77,14.38 12.45,3 19.98,6.03 22.52,9.07 2.56,3.02 3.84,6.68 3.84,10.94 0,6.07 -2.4,11.17 -7.2,15.28 -4.79,4.09 -10.33,6.15 -16.62,6.15 -7.8,0 -18.96,-1.34 -33.49,-4.06 -14.53,-2.7 -25.84,-4.04 -33.93,-4.04 -7.49,0 -18.21,1.34 -32.13,4.04 -13.94,2.71 -24.35,4.06 -31.22,4.06 -9.59,0 -17.98,-1.81 -25.18,-5.46 -7.2,-3.65 -10.79,-8.66 -10.79,-15.04 0,-5.17 1.34,-9.63 4.06,-13.43 2.7,-3.8 9.45,-6.67 20.27,-8.62 10.82,-1.95 18.24,-5.03 22.29,-9.22 4.05,-4.18 6.38,-8.53 6.98,-13.01 0.59,-4.5 0.91,-15.59 0.91,-33.27l0 -215.73c0,-6.29 -1.81,-11.97 -5.42,-17.07l-163.52 -232.35c-14.41,-20.09 -26.58,-34.38 -36.49,-42.93 -9.91,-8.53 -23.28,-12.8 -40.09,-12.8 -20.72,0 -31.07,-7.59 -31.07,-22.76 0,-14.26 10.05,-21.39 30.18,-21.39 10.19,0 25.29,1.34 45.28,4.06 19.96,2.69 35.05,4.06 45.25,4.06 8.41,0 21.24,-1.36 38.52,-4.06 17.28,-2.71 30.26,-4.06 38.97,-4.06 29.43,0 44.15,7.13 44.15,21.41 0,5.77 -1.88,10.41 -5.63,13.89 -3.76,3.49 -12.16,5.99 -25.22,7.49 -13.07,1.5 -21.18,3.51 -24.33,6.06 -3.16,2.54 -4.73,5.75 -4.73,9.65 0,10.17 24.12,47.43 72.35,111.77 6.6,8.97 21.88,30.73 45.85,65.3 23.97,34.57 36.71,51.85 38.2,51.85z"/>
   <path class="fil0" d="M2469.92 2478.52c7.52,0 13.47,-2.31 17.82,-6.98 4.37,-4.65 6.85,-15.33 7.45,-31.99 0.61,-16.66 2.69,-27.1 6.27,-31.31 3.57,-4.2 8.49,-6.31 14.76,-6.31 12.82,0 22.71,9.29 29.74,27.83 6.99,18.55 10.5,39.06 10.5,61.49 0,11.67 -3,20.5 -9.01,26.49 -6.01,5.96 -17.28,8.98 -33.79,8.98 -3.31,0 -8.33,-0.08 -15.1,-0.24 -6.75,-0.15 -11.78,-0.22 -15.09,-0.22l-357.23 0c-13.51,0 -22.22,-1.75 -26.12,-5.22 -3.92,-3.48 -5.85,-8.24 -5.85,-14.31 0,-5.75 2.17,-12.49 6.54,-20.21 4.36,-7.72 6.99,-12.51 7.88,-14.31l270.25 -520.75c0.59,-1.52 2.56,-5.26 5.87,-11.27 3.31,-5.99 4.96,-11.54 4.96,-16.65 0,-11.71 -11.43,-17.59 -34.24,-17.59l-163.96 0c-10.22,0 -19.38,2.35 -27.48,6.99 -8.12,4.67 -14.36,14.19 -18.69,28.61 -4.37,14.42 -8.3,23.05 -11.79,25.9 -3.48,2.86 -7.68,4.28 -12.53,4.28 -6.68,0 -11.93,-3.37 -15.71,-10.15 -3.81,-6.76 -5.7,-14.78 -5.7,-24.1 0,-28.83 3.53,-48.78 10.6,-59.91 7.05,-11.1 17.35,-16.67 30.9,-16.67l345.44 0c12.91,0 19.38,6.17 19.38,18.48 0,6.63 -4.66,18.94 -13.98,36.97l-270.71 526.09c-4.81,9.61 -7.23,16.68 -7.23,21.19 0,6.62 2.94,10.74 8.8,12.4 5.87,1.65 14.97,2.48 27.3,2.48l219.74 0z"/>
   <path class="fil0" d="M2939.73 2483.93c15.33,0 26.98,-4.03 34.96,-12.1 7.97,-8.06 11.97,-18.37 11.97,-30.91 0,-11.35 2.55,-20.38 7.66,-27.09 5.09,-6.71 11.1,-10.08 18.01,-10.08 6.91,0 12.68,3.15 17.36,9.46 4.65,6.31 6.97,14.71 6.97,25.22 0,10.51 0.45,21.84 1.36,34.02 0.89,12.16 1.34,20.49 1.34,25 0,12.31 -1.73,20.33 -5.18,24.09 -3.45,3.75 -12.38,5.63 -26.8,5.63l-364.43 0c-25.54,0 -43.03,-1.93 -52.49,-5.79 -9.46,-3.87 -14.19,-9.67 -14.19,-17.39 0,-12.17 8.55,-18.28 25.67,-18.28 21.93,0 36.19,-3.53 42.79,-10.58 6.61,-7.05 9.92,-18.24 9.92,-33.55l0 -412.19c0,-44.45 -0.75,-73.88 -2.25,-88.3 -1.5,-14.4 -5.26,-23.64 -11.27,-27.7 -6,-4.05 -18.01,-6.07 -36.03,-6.07 -10.82,0 -19.13,-2.06 -25,-6.15 -5.85,-4.1 -8.77,-9.32 -8.77,-15.7 0,-5.77 2.54,-10.85 7.64,-15.25 5.11,-4.4 11.56,-6.6 19.37,-6.6l346.88 0c13.8,0 22.8,2.85 27.02,8.55 4.21,5.71 7.29,14.13 9.24,25.22 1.95,11.13 2.92,29.45 2.92,54.97 0,11.7 -4.95,17.57 -14.86,17.57 -5.71,0 -10.74,-1.73 -15.1,-5.22 -4.35,-3.47 -9.17,-12.24 -14.43,-26.3 -5.26,-14.06 -10.69,-23.07 -16.25,-27 -5.57,-3.93 -11.97,-5.9 -19.18,-5.9l-123.69 0c-20.77,0 -33.87,2.93 -39.27,8.8 -5.43,5.87 -8.13,14.69 -8.13,26.42l0 95.27c0,22.3 3.01,36.97 9.02,44.04 6.02,7.07 18.21,10.61 36.58,10.61l120.09 0c9.94,0 17.47,-3.98 22.59,-11.94 5.11,-7.96 7.68,-16.9 7.68,-26.81 0,-5.11 2.11,-9.38 6.31,-12.83 4.21,-3.45 9.16,-5.18 14.86,-5.18 6.01,0 10.97,1.94 14.87,5.83 3.9,3.9 5.85,9.44 5.85,16.62 0,6.29 -0.97,15.34 -2.91,27.17 -1.95,11.84 -2.94,21.49 -2.94,28.98 0,11.38 1.27,23.36 3.84,35.94 2.54,12.58 3.82,20.21 3.82,22.91 0,6.88 -2.25,12.58 -6.76,17.07 -4.51,4.5 -9.76,6.75 -15.77,6.75 -6.29,0 -11.55,-2.78 -15.75,-8.35 -4.22,-5.55 -6.32,-13.12 -6.32,-22.74 0,-11.43 -3.02,-19.52 -9.02,-24.33 -6.04,-4.8 -15.95,-7.21 -29.81,-7.21l-119.21 0c-10.83,0 -19.71,2.18 -26.64,6.54 -6.92,4.35 -10.38,10.73 -10.38,19.13l0 287.85c0,15.03 3.82,25.08 11.5,30.18 7.68,5.11 20.83,7.66 39.5,7.66l155.23 0z"/>
   <path class="fil0" d="M3121.35 1943.41c0,-22.85 -15.53,-35.18 -46.59,-36.99 -21.5,-1.19 -32.26,-8.18 -32.26,-20.95 0,-13.36 12.3,-20.06 36.92,-20.06 11.7,0 24.59,1.06 38.7,3.16 14.09,2.11 26.1,3.16 36.01,3.16 6.59,0 24.89,-2.12 54.9,-6.31 29.99,-4.2 53.11,-6.31 69.31,-6.31 61.8,0 111.96,15.96 150.52,47.82 38.54,31.88 57.82,73.23 57.82,124.05 0,32.48 -9.53,59.33 -28.6,80.53 -19.07,21.2 -51.87,40.82 -98.42,58.85 -8.72,3.33 -13.06,6.79 -13.06,10.38 0,2.42 1.79,6.32 5.4,11.71 16.56,23.43 47.71,74.12 93.45,152.04 45.73,77.94 70.11,118.63 73.1,122.07 3.03,3.47 10.99,7.37 23.92,11.73 12.94,4.35 21.14,8.69 24.61,12.99 3.47,4.31 5.2,9.15 5.2,14.5 0,6.83 -4.53,12.72 -13.55,17.63 -9.02,4.89 -16.23,7.35 -21.63,7.35 -13.84,0 -30.68,-5.34 -50.53,-15.98 -19.86,-10.64 -32.93,-19.71 -39.24,-27.21 -11.72,-14.98 -50.06,-76.17 -115.02,-183.57 -30.38,-50.09 -47.82,-78.28 -52.32,-84.59 -16.25,-23.39 -32.17,-38.37 -47.8,-44.99 -3.92,-1.52 -6.48,-3.1 -7.68,-4.78 -1.2,-1.69 -1.81,-5.26 -1.81,-10.72 0,-13.09 7.79,-19.63 23.36,-19.63 1.5,0 5.68,0.53 12.6,1.57 6.88,1.07 13.63,1.57 20.21,1.57 32.94,0 60.51,-10.67 82.68,-32.03 22.16,-21.37 33.24,-51.14 33.24,-89.36 0,-27.08 -12.45,-54.02 -37.39,-80.79 -24.94,-26.77 -59.46,-40.16 -103.62,-40.16 -16.51,0 -28.6,1.87 -36.27,5.63 -7.65,3.76 -12.45,8.41 -14.4,13.98 -1.97,5.57 -2.94,12.86 -2.94,21.88l0 505.33c0,9.91 4.31,17.96 12.91,24.13 8.62,6.17 19.85,9.25 33.74,9.25 15.09,0 25.2,1.94 30.34,5.79 5.13,3.87 7.71,9.54 7.71,16.97 0,7.15 -3.24,13.09 -9.67,17.86 -6.45,4.76 -16.11,7.13 -29,7.13 -11.69,0 -26.02,-3.37 -42.95,-10.13 -16.93,-6.75 -30.34,-10.12 -40.23,-10.12 -8.39,0 -20.99,3.23 -37.77,9.67 -16.79,6.46 -29.98,9.69 -39.56,9.69 -27.59,0 -41.39,-8.63 -41.39,-25.87 0,-6.54 2.25,-11.37 6.73,-14.48 4.48,-3.14 15.68,-4.7 33.58,-4.7 10.75,0 19.56,-2.4 26.43,-7.21 6.85,-4.8 10.3,-10.67 10.3,-17.6l0 -513.9z"/>
   <path class="fil1" d="M1420 1351.73c-190.56,-173.31 -434.54,-498.59 -602.79,-1096.16 0,0 791.3,-372.25 1747.7,0 0,0 -146.87,662.12 -602.71,1092.68 -151.15,142.77 -388.4,143.36 -542.2,3.48zm-652.09 -972.24c261.1,779.82 636.87,1084.23 826.49,1193.48 68.56,39.52 154.44,36.38 219.24,-9.05 466.85,-327.31 704.66,-885.88 803.07,-1181.29 37,-111.04 -24.68,-229.55 -136.59,-263.81 -692.03,-211.91 -1284.92,-93.46 -1577.26,-3.85 -111.38,34.16 -171.94,154.05 -134.95,264.52z"/>
   <path class="fil2" d="M1139.03 220.21c-127.3,33.64 -198.32,169.92 -153.56,293.74l0 0c166.55,460.72 383.73,693.89 535.06,808l0 0c101.02,76.17 240.66,72.15 338.08,-8.59l0 0c282.33,-234.02 443.87,-573.62 525.2,-794.95l0 0c45.5,-123.84 -24.79,-260.55 -152.15,-294.88l0 0c-198.04,-53.37 -384.52,-72.91 -551.35,-72.91l0 0c-221.1,0 -407.74,34.3 -541.27,69.59zm579.19 479.67c-64.12,-5.5 -129.55,-7.37 -191.71,-22.13l0 0c-114.83,-27.29 -149.37,-109.48 -88,-209.99l0 0c91.91,-150.57 222.37,-251.33 400.09,-282.64l0 0c54.03,-9.52 101.33,4.48 141.21,52.11l0 0c-151.35,-57.55 -304.48,2.37 -360.5,136.96l0 0c-24.81,59.62 -8.99,101.66 52.07,123.65l0 0c35.26,12.69 73.54,17.05 110.44,25.33l0 0c68.29,15.35 138.68,24.88 204.35,47.76l0 0c79.19,27.61 111.98,87.94 105.14,171.36l0 0c-3.04,37.04 -10.67,73.7 -21.74,112.93l0 0c-40.63,-128.84 -142.55,-150.27 -254.49,-154.36l0 0c-13.57,-0.5 -27.16,-0.27 -40.75,-0.02l0 0c-7.79,0.14 -15.6,0.28 -23.36,0.28l0 0c-10.96,0 -21.88,-0.28 -32.74,-1.23zm-89.89 529.51c65.58,-19.78 118,-58.2 156.68,-114.46l0 0c58.28,-84.75 37.8,-143.31 -61.81,-167.44l0 0c-54.29,-13.12 -110.78,-16.91 -165.76,-27.52l0 0c-35.68,-6.88 -71.5,-15.64 -105.41,-28.4l0 0c-85.75,-32.31 -124.94,-90.86 -119.53,-181.29l0 0c2.48,-41.28 13.33,-82.08 20.37,-123.09l0 0c6.87,-0.22 5.51,-0.17 12.36,-0.39l0 0c32.87,125.77 126.74,156.78 242.15,160.03l0 0c92.26,2.6 184.31,11.53 276.43,18.24l0 0c11.02,0.81 21.89,4.92 32.61,8.27l0 0c97.96,30.62 131,99.05 88.99,192.1l0 0c-46.1,102.14 -127.92,172.3 -219.91,232.14l0 0c-64.58,42.03 -134.12,71.09 -211.78,76.11l0 0c-57.09,3.7 -103.87,-15.46 -140.75,-76.21l0 0c45.35,27.67 88.48,41.56 131.97,41.56l0 0c20.94,0 41.96,-3.22 63.38,-9.66l0 0z"/>
  </g>
 </g>
</svg>
