<?xml version="1.0" encoding="UTF-8"?>
<!DOCTYPE svg PUBLIC "-//W3C//DTD SVG 1.1//EN" "http://www.w3.org/Graphics/SVG/1.1/DTD/svg11.dtd">
<!-- Creator: CorelDRAW 2021 (64-Bit) -->
<svg xmlns="http://www.w3.org/2000/svg" xml:space="preserve" width="143.333mm" height="24.7409mm" version="1.1" style="shape-rendering:geometricPrecision; text-rendering:geometricPrecision; image-rendering:optimizeQuality; fill-rule:evenodd; clip-rule:evenodd"
viewBox="0 0 13563.71 2341.24"
 xmlns:xlink="http://www.w3.org/1999/xlink"
 xmlns:xodm="http://www.corel.com/coreldraw/odm/2003">
 <defs>
  <style type="text/css">
   <![CDATA[
    .fil4 {fill:#E22228;fill-rule:nonzero}
    .fil2 {fill:#A62725;fill-rule:nonzero}
    .fil5 {fill:#2BA63E;fill-rule:nonzero}
    .fil1 {fill:#1561A3;fill-rule:nonzero}
    .fil3 {fill:#008040;fill-rule:nonzero}
    .fil0 {fill:#1F3747;fill-rule:nonzero}
   ]]>
  </style>
 </defs>
 <g id="Layer_x0020_1">
  <metadata id="CorelCorpID_0Corel-Layer"/>
  <path class="fil0" d="M5612.83 2131.84l-49.44 -120.67 -49.43 120.67 98.88 0zm-86.11 -219.02l75.49 0 159.47 374.78 -85.57 0 -34.04 -83.46 -157.34 0 -34.03 83.46 -83.46 0 159.49 -374.78z"/>
  <polygon class="fil0" points="6318.88,1915.47 6400.74,1915.47 6400.74,2078.14 6551.71,1915.47 6650.59,1915.47 6499.08,2073.35 6657.51,2287.6 6559.16,2287.6 6443.8,2129.17 6400.74,2173.83 6400.74,2287.6 6318.88,2287.6 "/>
  <path class="fil0" d="M7409.8 2131.84l-49.43 -120.67 -49.43 120.67 98.87 0zm-86.1 -219.02l75.49 0 159.47 374.78 -85.57 0 -34.04 -83.46 -157.35 0 -34.02 83.46 -83.46 0 159.49 -374.78z"/>
  <path class="fil0" d="M8197.74 1989.36l0 224.34 63.27 0c66.98,0 112.16,-45.19 112.16,-111.1l0 -1.07c0,-65.92 -45.18,-112.17 -112.16,-112.17l-63.27 0zm-81.86 -73.89l145.13 0c116.94,0 197.76,80.27 197.76,184.98l0 1.08c0,104.71 -80.81,186.06 -197.76,186.06l-145.13 0 0 -372.12z"/>
  <polygon class="fil0" points="9031.38,1915.47 9312.06,1915.47 9312.06,1988.3 9112.71,1988.3 9112.71,2063.79 9288.13,2063.79 9288.13,2136.62 9112.71,2136.62 9112.71,2214.76 9314.73,2214.76 9314.73,2287.6 9031.38,2287.6 "/>
  <polygon class="fil0" points="9887.34,1915.47 9975.59,1915.47 10073.4,2072.82 10171.21,1915.47 10259.45,1915.47 10259.45,2287.6 10178.12,2287.6 10178.12,2044.65 10073.4,2203.6 10071.27,2203.6 9967.61,2046.24 9967.61,2287.6 9887.34,2287.6 "/>
  <path class="fil0" d="M10853.35 1818.73l79.74 0 0 67.5 -79.74 0 0 -67.5zm-1.06 96.75l81.86 0 0 372.12 -81.86 0 0 -372.12z"/>
  <path class="fil1" d="M3084.5 1178.97l614.1 0c89.5,0 162.34,-72.82 162.34,-162.34l0 -451.77c0,-89.52 -72.84,-162.34 -162.34,-162.34l-614.1 0 0 776.44zm614.1 346.82l-960.93 0 0 -1470.08 960.93 0c280.75,0 509.16,228.41 509.16,509.16l0 451.77c0,280.75 -228.41,509.16 -509.16,509.16z"/>
  <path class="fil1" d="M12440.46 1178.97l614.1 0c89.5,0 162.32,-72.82 162.32,-162.34l0 -451.77c0,-89.52 -72.82,-162.34 -162.32,-162.34l-614.1 0 0 776.44zm614.1 346.82l-960.93 0 0 -1470.08 960.93 0c280.74,0 509.15,228.41 509.15,509.16l0 451.77c0,280.75 -228.41,509.16 -509.15,509.16z"/>
  <path class="fil1" d="M8410.06 1527.86l-346.81 0 0 -962.98c0,-89.53 -72.84,-162.36 -162.36,-162.36l-451.78 0c-89.52,0 -162.33,72.83 -162.33,162.36l0 962.98 -346.82 0 0 -962.98c0,-280.77 228.4,-509.17 509.15,-509.17l451.78 0c280.74,0 509.17,228.4 509.17,509.17l0 962.98z"/>
  <path class="fil1" d="M9533.32 1527.86l-346.82 0 0 -962.98c0,-89.53 -72.83,-162.36 -162.34,-162.36l-451.77 0c-89.53,0 -162.35,72.83 -162.35,162.36l0 962.98 -346.82 0 0 -962.98c0,-280.77 228.42,-509.17 509.17,-509.17l451.77 0c280.75,0 509.16,228.4 509.16,509.17l0 962.98z"/>
  <path class="fil1" d="M11844.08 1527.86l-346.81 0 0 -962.98c0,-89.53 -72.84,-162.36 -162.35,-162.36l-451.78 0c-89.52,0 -162.33,72.83 -162.33,162.36l0 962.98 -346.82 0 0 -962.98c0,-280.77 228.4,-509.17 509.15,-509.17l451.78 0c280.75,0 509.16,228.4 509.16,509.17l0 962.98z"/>
  <path class="fil1" d="M5575.02 1532.43l-521.35 0 0 -346.82 521.35 0c94.97,0 172.22,-77.27 172.22,-172.23l0 -959.73 346.82 0 0 959.73c0,286.2 -232.84,519.05 -519.04,519.05z"/>
  <polygon class="fil2" points="4804.13,53.66 4457.31,53.66 4457.31,402.52 4804.13,402.52 "/>
  <polygon class="fil1" points="4457.3,1527.86 4804.12,1527.86 4804.12,478.95 4457.3,478.95 "/>
  <polygon class="fil1" points="6343.6,1527.86 6690.41,1527.86 6690.41,478.95 6343.6,478.95 "/>
  <polygon class="fil3" points="6690.41,53.66 6343.6,53.66 6343.6,402.52 6690.41,402.52 "/>
  <polygon class="fil1" points="9777.63,1527.86 10124.44,1527.86 10124.44,478.95 9777.63,478.95 "/>
  <polygon class="fil0" points="10124.44,53.66 9777.63,53.66 9777.63,402.52 10124.44,402.52 "/>
  <path class="fil1" d="M1711.59 509.64c0,-4.67 1.26,-8.37 3.83,-11.16 2.56,-2.79 6.4,-4.19 11.51,-4.19l92.25 0c3.94,0 7.61,1.4 10.97,4.19 3.37,2.79 5.07,6.49 5.07,11.16l0 84.28c0,4.18 -1.36,7.88 -4.01,11.15 -2.68,3.24 -6.7,4.86 -12.03,4.86l-92.25 0c-10.25,0 -15.34,-5.34 -15.34,-16.01l0 -84.28z"/>
  <path class="fil1" d="M1711.59 927.57c0,-4.67 1.26,-8.37 3.83,-11.16 2.56,-2.78 6.4,-4.18 11.51,-4.18l92.25 0c3.94,0 7.61,1.4 10.97,4.18 3.37,2.79 5.07,6.49 5.07,11.16l0 84.28c0,4.19 -1.36,7.89 -4.01,11.16 -2.68,3.24 -6.7,4.85 -12.03,4.85l-92.25 0c-10.25,0 -15.34,-5.34 -15.34,-16.01l0 -84.28z"/>
  <path class="fil1" d="M1711.59 1345.5c0,-4.67 1.26,-8.37 3.83,-11.16 2.56,-2.79 6.4,-4.18 11.51,-4.18l92.25 0c3.94,0 7.61,1.39 10.97,4.18 3.37,2.79 5.07,6.49 5.07,11.16l0 84.27c0,4.19 -1.36,7.9 -4.01,11.16 -2.68,3.24 -6.7,4.86 -12.03,4.86l-92.25 0c-10.25,0 -15.34,-5.34 -15.34,-16.02l0 -84.27z"/>
  <path class="fil4" d="M313.62 300.67c0,-4.67 1.26,-8.37 3.83,-11.15 2.56,-2.79 6.4,-4.19 11.51,-4.19l92.25 0c3.94,0 7.61,1.4 10.96,4.19 3.38,2.78 5.08,6.48 5.08,11.15l0 84.28c0,4.19 -1.36,7.89 -4.01,11.16 -2.68,3.24 -6.7,4.86 -12.03,4.86l-92.25 0c-10.25,0 -15.34,-5.34 -15.34,-16.02l0 -84.28z"/>
  <path class="fil5" d="M543.83 300.67c0,-4.67 1.28,-8.37 3.85,-11.15 2.56,-2.79 6.39,-4.19 11.51,-4.19l92.23 0c3.96,0 7.62,1.4 10.98,4.19 3.38,2.78 5.08,6.48 5.08,11.15l0 84.28c0,4.19 -1.36,7.89 -4.03,11.16 -2.68,3.24 -6.69,4.86 -12.03,4.86l-92.23 0c-10.26,0 -15.36,-5.34 -15.36,-16.02l0 -84.28z"/>
  <path class="fil0" d="M1245.59 300.67c0,-4.67 1.27,-8.37 3.85,-11.15 2.56,-2.79 6.38,-4.19 11.5,-4.19l92.24 0c3.94,0 7.62,1.4 10.98,4.19 3.37,2.78 5.08,6.48 5.08,11.15l0 84.28c0,4.19 -1.37,7.89 -4.03,11.16 -2.67,3.24 -6.7,4.86 -12.03,4.86l-92.24 0c-10.25,0 -15.35,-5.34 -15.35,-16.02l0 -84.28z"/>
  <path class="fil1" d="M313.62 509.64c0,-4.67 1.26,-8.37 3.83,-11.16 2.56,-2.79 6.4,-4.19 11.51,-4.19l92.25 0c3.94,0 7.61,1.4 10.96,4.19 3.38,2.79 5.08,6.49 5.08,11.16l0 84.28c0,4.18 -1.36,7.88 -4.01,11.15 -2.68,3.24 -6.7,4.86 -12.03,4.86l-92.25 0c-10.25,0 -15.34,-5.34 -15.34,-16.01l0 -84.28z"/>
  <path class="fil1" d="M543.83 509.64c0,-4.67 1.28,-8.37 3.85,-11.16 2.56,-2.79 6.39,-4.19 11.51,-4.19l92.23 0c3.96,0 7.62,1.4 10.98,4.19 3.38,2.79 5.08,6.49 5.08,11.16l0 84.28c0,4.18 -1.36,7.88 -4.03,11.15 -2.68,3.24 -6.69,4.86 -12.03,4.86l-92.23 0c-10.26,0 -15.36,-5.34 -15.36,-16.01l0 -84.28z"/>
  <path class="fil1" d="M1009.79 509.64c0,-4.67 1.26,-8.37 3.85,-11.16 2.55,-2.79 6.39,-4.19 11.5,-4.19l92.24 0c3.94,0 7.61,1.4 10.98,4.19 3.38,2.79 5.07,6.49 5.07,11.16l0 84.28c0,4.18 -1.36,7.88 -4.02,11.15 -2.68,3.24 -6.69,4.86 -12.03,4.86l-92.24 0c-10.25,0 -15.35,-5.34 -15.35,-16.01l0 -84.28z"/>
  <path class="fil1" d="M313.62 718.61c0,-4.67 1.26,-8.37 3.83,-11.16 2.56,-2.78 6.4,-4.18 11.51,-4.18l92.25 0c3.94,0 7.61,1.4 10.96,4.18 3.38,2.79 5.08,6.49 5.08,11.16l0 84.28c0,4.18 -1.36,7.89 -4.01,11.15 -2.68,3.25 -6.7,4.87 -12.03,4.87l-92.25 0c-10.25,0 -15.34,-5.35 -15.34,-16.02l0 -84.28z"/>
  <path class="fil1" d="M543.83 718.61c0,-4.67 1.28,-8.37 3.85,-11.16 2.56,-2.78 6.39,-4.18 11.51,-4.18l92.23 0c3.96,0 7.62,1.4 10.98,4.18 3.38,2.79 5.08,6.49 5.08,11.16l0 84.28c0,4.18 -1.36,7.89 -4.03,11.15 -2.68,3.25 -6.69,4.87 -12.03,4.87l-92.23 0c-10.26,0 -15.36,-5.35 -15.36,-16.02l0 -84.28z"/>
  <path class="fil1" d="M1009.79 718.61c0,-4.67 1.26,-8.37 3.85,-11.16 2.55,-2.78 6.39,-4.18 11.5,-4.18l92.24 0c3.94,0 7.61,1.4 10.98,4.18 3.38,2.79 5.07,6.49 5.07,11.16l0 84.28c0,4.18 -1.36,7.89 -4.02,11.15 -2.68,3.25 -6.69,4.87 -12.03,4.87l-92.24 0c-10.25,0 -15.35,-5.35 -15.35,-16.02l0 -84.28z"/>
  <path class="fil1" d="M1475.78 718.61c0,-4.67 1.27,-8.37 3.85,-11.16 2.56,-2.78 6.38,-4.18 11.49,-4.18l92.25 0c3.94,0 7.62,1.4 10.98,4.18 3.37,2.79 5.08,6.49 5.08,11.16l0 84.28c0,4.18 -1.38,7.89 -4.03,11.15 -2.68,3.25 -6.7,4.87 -12.03,4.87l-92.25 0c-10.24,0 -15.34,-5.35 -15.34,-16.02l0 -84.28z"/>
  <path class="fil1" d="M313.62 927.57c0,-4.67 1.26,-8.37 3.83,-11.16 2.56,-2.78 6.4,-4.18 11.51,-4.18l92.25 0c3.94,0 7.61,1.4 10.96,4.18 3.38,2.79 5.08,6.49 5.08,11.16l0 84.28c0,4.19 -1.36,7.89 -4.01,11.16 -2.68,3.24 -6.7,4.85 -12.03,4.85l-92.25 0c-10.25,0 -15.34,-5.34 -15.34,-16.01l0 -84.28z"/>
  <path class="fil1" d="M543.83 927.57c0,-4.67 1.28,-8.37 3.85,-11.16 2.56,-2.78 6.39,-4.18 11.51,-4.18l92.23 0c3.96,0 7.62,1.4 10.98,4.18 3.38,2.79 5.08,6.49 5.08,11.16l0 84.28c0,4.19 -1.36,7.89 -4.03,11.16 -2.68,3.24 -6.69,4.85 -12.03,4.85l-92.23 0c-10.26,0 -15.36,-5.34 -15.36,-16.01l0 -84.28z"/>
  <path class="fil1" d="M1009.79 927.57c0,-4.67 1.26,-8.37 3.85,-11.16 2.55,-2.78 6.39,-4.18 11.5,-4.18l92.24 0c3.94,0 7.61,1.4 10.98,4.18 3.38,2.79 5.07,6.49 5.07,11.16l0 84.28c0,4.19 -1.36,7.89 -4.02,11.16 -2.68,3.24 -6.69,4.85 -12.03,4.85l-92.24 0c-10.25,0 -15.35,-5.34 -15.35,-16.01l0 -84.28z"/>
  <path class="fil1" d="M313.62 1136.53c0,-4.67 1.26,-8.37 3.83,-11.15 2.56,-2.79 6.4,-4.19 11.51,-4.19l92.25 0c3.94,0 7.61,1.4 10.96,4.19 3.38,2.78 5.08,6.48 5.08,11.15l0 84.28c0,4.19 -1.36,7.89 -4.01,11.16 -2.68,3.24 -6.7,4.86 -12.03,4.86l-92.25 0c-10.25,0 -15.34,-5.34 -15.34,-16.02l0 -84.28z"/>
  <path class="fil1" d="M543.83 1136.53c0,-4.67 1.28,-8.37 3.85,-11.15 2.56,-2.79 6.39,-4.19 11.51,-4.19l92.23 0c3.96,0 7.62,1.4 10.98,4.19 3.38,2.78 5.08,6.48 5.08,11.15l0 84.28c0,4.19 -1.36,7.89 -4.03,11.16 -2.68,3.24 -6.69,4.86 -12.03,4.86l-92.23 0c-10.26,0 -15.36,-5.34 -15.36,-16.02l0 -84.28z"/>
  <path class="fil1" d="M1009.79 1136.53c0,-4.67 1.26,-8.37 3.85,-11.15 2.55,-2.79 6.39,-4.19 11.5,-4.19l92.24 0c3.94,0 7.61,1.4 10.98,4.19 3.38,2.78 5.07,6.48 5.07,11.15l0 84.28c0,4.19 -1.36,7.89 -4.02,11.16 -2.68,3.24 -6.69,4.86 -12.03,4.86l-92.24 0c-10.25,0 -15.35,-5.34 -15.35,-16.02l0 -84.28z"/>
  <path class="fil1" d="M1240.02 1136.53c0,-4.67 1.26,-8.37 3.84,-11.15 2.56,-2.79 6.4,-4.19 11.5,-4.19l92.25 0c3.94,0 7.61,1.4 10.98,4.19 3.37,2.78 5.07,6.48 5.07,11.15l0 84.28c0,4.19 -1.37,7.89 -4.03,11.16 -2.67,3.24 -6.7,4.86 -12.02,4.86l-92.25 0c-10.24,0 -15.34,-5.34 -15.34,-16.02l0 -84.28z"/>
  <path class="fil1" d="M1706.01 1136.53c0,-4.67 1.27,-8.37 3.85,-11.15 2.54,-2.79 6.38,-4.19 11.49,-4.19l92.25 0c3.94,0 7.62,1.4 10.97,4.19 3.38,2.78 5.07,6.48 5.07,11.15l0 84.28c0,4.19 -1.36,7.89 -4.01,11.16 -2.68,3.24 -6.7,4.86 -12.03,4.86l-92.25 0c-10.24,0 -15.34,-5.34 -15.34,-16.02l0 -84.28z"/>
  <path class="fil1" d="M313.62 1345.5c0,-4.67 1.26,-8.37 3.83,-11.16 2.56,-2.79 6.4,-4.18 11.51,-4.18l92.25 0c3.94,0 7.61,1.39 10.96,4.18 3.38,2.79 5.08,6.49 5.08,11.16l0 84.27c0,4.19 -1.36,7.9 -4.01,11.16 -2.68,3.24 -6.7,4.86 -12.03,4.86l-92.25 0c-10.25,0 -15.34,-5.34 -15.34,-16.02l0 -84.27z"/>
  <path class="fil1" d="M543.83 1345.5c0,-4.67 1.28,-8.37 3.85,-11.16 2.56,-2.79 6.39,-4.18 11.51,-4.18l92.23 0c3.96,0 7.62,1.39 10.98,4.18 3.38,2.79 5.08,6.49 5.08,11.16l0 84.27c0,4.19 -1.36,7.9 -4.03,11.16 -2.68,3.24 -6.69,4.86 -12.03,4.86l-92.23 0c-10.26,0 -15.36,-5.34 -15.36,-16.02l0 -84.27z"/>
  <path class="fil1" d="M1009.79 1345.5c0,-4.67 1.26,-8.37 3.85,-11.16 2.55,-2.79 6.39,-4.18 11.5,-4.18l92.24 0c3.94,0 7.61,1.39 10.98,4.18 3.38,2.79 5.07,6.49 5.07,11.16l0 84.27c0,4.19 -1.36,7.9 -4.02,11.16 -2.68,3.24 -6.69,4.86 -12.03,4.86l-92.24 0c-10.25,0 -15.35,-5.34 -15.35,-16.02l0 -84.27z"/>
  <path class="fil1" d="M313.62 1554.47c0,-4.67 1.26,-8.37 3.83,-11.16 2.56,-2.78 6.4,-4.18 11.51,-4.18l92.25 0c3.94,0 7.61,1.4 10.96,4.18 3.38,2.79 5.08,6.49 5.08,11.16l0 84.28c0,4.18 -1.36,7.88 -4.01,11.15 -2.68,3.25 -6.7,4.86 -12.03,4.86l-92.25 0c-10.25,0 -15.34,-5.34 -15.34,-16.01l0 -84.28z"/>
  <path class="fil1" d="M543.83 1554.47c0,-4.67 1.28,-8.37 3.85,-11.16 2.56,-2.78 6.39,-4.18 11.51,-4.18l92.23 0c3.96,0 7.62,1.4 10.98,4.18 3.38,2.79 5.08,6.49 5.08,11.16l0 84.28c0,4.18 -1.36,7.88 -4.03,11.15 -2.68,3.25 -6.69,4.86 -12.03,4.86l-92.23 0c-10.26,0 -15.36,-5.34 -15.36,-16.01l0 -84.28z"/>
  <path class="fil1" d="M1009.79 1554.47c0,-4.67 1.26,-8.37 3.85,-11.16 2.55,-2.78 6.39,-4.18 11.5,-4.18l92.24 0c3.94,0 7.61,1.4 10.98,4.18 3.38,2.79 5.07,6.49 5.07,11.16l0 84.28c0,4.18 -1.36,7.88 -4.02,11.15 -2.68,3.25 -6.69,4.86 -12.03,4.86l-92.24 0c-10.25,0 -15.35,-5.34 -15.35,-16.01l0 -84.28z"/>
  <path class="fil1" d="M1240.02 1554.47c0,-4.67 1.26,-8.37 3.84,-11.16 2.56,-2.78 6.4,-4.18 11.5,-4.18l92.25 0c3.94,0 7.61,1.4 10.98,4.18 3.37,2.79 5.07,6.49 5.07,11.16l0 84.28c0,4.18 -1.37,7.88 -4.03,11.15 -2.67,3.25 -6.7,4.86 -12.02,4.86l-92.25 0c-10.24,0 -15.34,-5.34 -15.34,-16.01l0 -84.28z"/>
  <path class="fil1" d="M1470.24 1554.47c0,-4.67 1.27,-8.37 3.85,-11.16 2.56,-2.78 6.38,-4.18 11.5,-4.18l92.24 0c3.95,0 7.62,1.4 10.98,4.18 3.37,2.79 5.08,6.49 5.08,11.16l0 84.28c0,4.18 -1.38,7.88 -4.03,11.15 -2.67,3.25 -6.7,4.86 -12.03,4.86l-92.24 0c-10.24,0 -15.35,-5.34 -15.35,-16.01l0 -84.28z"/>
  <path class="fil1" d="M313.62 1763.43c0,-4.66 1.26,-8.37 3.83,-11.15 2.56,-2.79 6.4,-4.19 11.51,-4.19l92.25 0c3.94,0 7.61,1.4 10.96,4.19 3.38,2.78 5.08,6.49 5.08,11.15l0 84.28c0,4.19 -1.36,7.89 -4.01,11.16 -2.68,3.24 -6.7,4.86 -12.03,4.86l-92.25 0c-10.25,0 -15.34,-5.35 -15.34,-16.02l0 -84.28z"/>
  <path class="fil1" d="M543.83 1763.43c0,-4.66 1.28,-8.37 3.85,-11.15 2.56,-2.79 6.39,-4.19 11.51,-4.19l92.23 0c3.96,0 7.62,1.4 10.98,4.19 3.38,2.78 5.08,6.49 5.08,11.15l0 84.28c0,4.19 -1.36,7.89 -4.03,11.16 -2.68,3.24 -6.69,4.86 -12.03,4.86l-92.23 0c-10.26,0 -15.36,-5.35 -15.36,-16.02l0 -84.28z"/>
  <path class="fil1" d="M1245.59 1763.43c0,-4.66 1.27,-8.37 3.85,-11.15 2.56,-2.79 6.38,-4.19 11.5,-4.19l92.24 0c3.94,0 7.62,1.4 10.98,4.19 3.37,2.78 5.08,6.49 5.08,11.15l0 84.28c0,4.19 -1.37,7.89 -4.03,11.16 -2.67,3.24 -6.7,4.86 -12.03,4.86l-92.24 0c-10.25,0 -15.35,-5.35 -15.35,-16.02l0 -84.28z"/>
  <path class="fil1" d="M2111.41 1723.3c0,214.07 -174.18,388.25 -388.24,388.25l-1297.53 0c-80.28,0 -154.94,-24.51 -216.82,-66.39 -41.78,-28.26 -77.79,-64.4 -105.79,-106.41 -41.4,-61.64 -65.52,-135.79 -65.52,-215.45l0 -1297.54c0,-214.06 174.05,-388.25 388.13,-388.25l1297.53 0c93.04,0 178.55,32.89 245.45,87.78 87.16,71.15 142.79,179.44 142.79,300.47l0 1297.54zm-33.51 -1532.73c-0.11,0 -0.11,-0.12 -0.24,-0.12 -26.77,-40.39 -60.39,-75.9 -99.03,-104.92 -71.28,-53.77 -159.8,-85.53 -255.46,-85.53l-1297.53 0c-234.71,0 -425.64,191.07 -425.64,425.76l0 1297.54c0,140.8 68.77,265.84 174.43,343.37 30.12,22.26 63.38,40.51 98.89,54.14 47.27,18.25 98.67,28.26 152.32,28.26l1297.53 0c234.71,0 425.76,-191.06 425.76,-425.76l0 -1297.54c0,-86.9 -26.14,-167.8 -71.03,-235.19z"/>
  <path class="fil1" d="M2365.5 683.22l0 1205.51c0,249.45 -202.94,452.51 -452.51,452.51l-1205.39 0c-219.45,0 -414.13,-108.53 -533.16,-274.59 30.12,22.26 63.38,40.52 98.9,54.15 111.29,111.15 264.96,180.05 434.26,180.05l1205.39 0c227.31,0 412.13,-184.94 412.13,-412.13l0 -1205.51c0,-201.32 -97.29,-380.38 -247.21,-492.67 -0.12,0 -0.12,-0.12 -0.26,-0.12 -26.75,-40.39 -60.39,-75.9 -99.01,-104.91 227.8,102.66 386.86,331.98 386.86,597.7z"/>
 </g>
</svg>
