<?xml version="1.0" encoding="UTF-8"?>
<!DOCTYPE svg PUBLIC "-//W3C//DTD SVG 1.1//EN" "http://www.w3.org/Graphics/SVG/1.1/DTD/svg11.dtd">
<!-- Creator: CorelDRAW 2018 (64-Bit Evaluation Version) -->
<svg xmlns="http://www.w3.org/2000/svg" xml:space="preserve" width="99.9838mm" height="17.8954mm" version="1.1" style="shape-rendering:geometricPrecision; text-rendering:geometricPrecision; image-rendering:optimizeQuality; fill-rule:evenodd; clip-rule:evenodd"
viewBox="0 0 2135.98 382.3"
 xmlns:xlink="http://www.w3.org/1999/xlink">
 <defs>
  <style type="text/css">
   <![CDATA[
    .fil0 {fill:#009AA3}
    .fil4 {fill:#26201A}
    .fil1 {fill:#273387}
    .fil3 {fill:#D41916}
    .fil6 {fill:#EAD718}
    .fil5 {fill:#F4E100}
    .fil2 {fill:#FDFDFD}
   ]]>
  </style>
 </defs>
 <g id="Layer_x0020_1">
  <metadata id="CorelCorpID_0Corel-Layer"/>
  <g id="_2480829658384">
   <path class="fil0" d="M144.8 187.73l-0.22 -112.91c50.99,0.08 106,-1.97 154.26,1.34 45.89,3.15 99.68,6.27 100.68,54.62 0.98,47.58 -54.5,53.85 -98.51,56.16 -50.66,2.65 -105.12,0.75 -156.21,0.81zm-144.8 193.16l144.5 0.05 -0.06 -123.28c9.86,-3.31 178.05,-4.95 208.32,-7.06 208.2,-14.49 216.36,-153.43 152.68,-208.43 -18.7,-16.15 -46.38,-26.24 -76.65,-31.94 -20.3,-3.82 -87.55,-7.12 -96.71,-10.23l-332.08 0 0 380.89z"/>
   <path class="fil0" d="M995.16 0l-339.29 0 -0.03 380.79 254.57 0.15 -0.02 -67.74 -110.12 -0.18 -0.09 -237.31c36.35,-6.33 168.33,0.44 204.21,7.67 60.44,12.16 102.94,46.67 91.15,118.65l136.59 0.56c13.87,-77.37 -21.83,-127.04 -63.55,-155.15 -68.46,-46.14 -141.96,-37.16 -173.42,-47.41z"/>
   <path class="fil1" d="M2041.45 171.68c-5.26,-2.95 -5.67,-2.75 -11.96,-0.75 -0.24,-12.34 1.86,-3.69 -2.94,-7.87l5.72 -5.58c2.2,-2.32 0.24,0.48 2.97,-3.87 3.02,3.67 3.49,4.94 9.1,6.6 -3.26,4.72 -3.37,5.64 -2.9,11.47zm33.19 -10.44c-0.04,-0.29 -0.35,0.75 -0.53,0.02l-9.7 0.19c-1.09,-8.69 2.77,-3.57 -4.15,-9.27 1.2,-0.6 4.46,-1.92 5.77,-2.72l5.7 -4.55c3.24,6.64 -3.75,3.77 8.15,5.55 -2.31,3.3 -2.77,4.01 -4.03,7.23l-1.22 3.54zm-68.39 -3.45c-0.97,2.59 1.4,-0.5 -1.03,2.85l-9.91 0.98c-1.25,-8.82 2.76,-3.7 -4.35,-9.17 8.49,-5.22 4.66,1.7 8.43,-7.81l5.04 3.94c5.38,3.08 0.98,0.91 6.19,1.96 -0.01,0.01 -3.22,4.37 -3.26,4.44l-1.11 2.79zm95.47 -19.98c-6.31,-2.94 -5.96,-3.03 -12.37,0.18 1.43,-8.76 2.39,-5.32 -3.16,-9.65l6.16 -4.24c0.8,-0.74 2.7,-3.66 3.51,-4.91 4.19,7.35 1.18,4.44 9.23,7.7 -6.44,6.71 -3.9,1.74 -3.37,10.91zm-119.57 -0.35c-8.27,-3.11 -4.79,-4.24 -13.17,0.15 0.65,-10.64 1.85,-4.93 -2.97,-11.62 5.99,-0.49 6.64,-2.15 10.49,-5.39 4.36,7.44 -1.69,3.15 8.19,5.71 -5.33,4.97 -4.88,1.9 -2.54,11.15zm129.32 -33.47c-5.76,-2.13 -7.33,-2.49 -12.87,-0.42 0.71,-12.84 3.26,-4.75 -3.53,-10.85 8.14,-2.57 6.55,-1.56 10.98,-6.64 3.59,6.83 4.8,5.72 7.83,7.96 -5.43,6.82 -3.13,1.16 -2.41,9.96zm-151.4 -0.46c0.51,-9.15 1.23,-5.27 -3.16,-11.18 9.96,-3.48 2.06,1.44 8.88,-4.95 0.59,0.46 1.31,1.11 1.75,1.37l7.61 3.29c-2.76,5.08 -4.09,4.13 -2.98,11.09 -7.57,-2.56 -4.77,-2.55 -12.1,0.37zm141.25 -33.86c-6.81,-3.39 -5.21,-6.09 -10.91,0.46 -0.71,-12.06 0.66,-5.07 -3.38,-11.38 9.05,-2.11 3.28,-0.16 9.51,-7.19 2.77,6.91 0.54,5.09 7.55,6.81 -2.74,4.94 -2.73,3.78 -2.77,11.3zm-131.4 -3.08c-1.93,-5.38 2.73,-1.59 -2.89,-4.09 0.49,-0.61 1.03,-1.42 1.43,-1.87l8.31 -7.02c3.31,4.89 0.36,2.9 7.04,4.73 -2.34,5.05 -2.39,4.15 -2.47,11.24 -3.07,-1.02 -5.19,-1.16 -7.48,-1.7 -0.33,-0.08 -1.16,-0.28 -1.42,-0.34l-2.51 -0.95zm109.18 -32.44c-3,4.52 -3.69,5.14 -2.84,9.81l-11.71 0.6c-0.45,-7.01 -0.43,-6.11 -3.16,-10.69 6.36,-1.61 5.11,-0.67 8.8,-6.04 3.73,5.42 1.91,4.59 8.91,6.31zm-69.38 0.38c-6.91,9.71 -2.41,7.85 -14.89,10.49 -0.22,-7.81 1.67,-3.82 -3.17,-7.64l5.86 -6.09c0.3,-0.31 2.69,-3.05 2.8,-3.21 3.78,3.62 3.21,3.79 9.39,6.45zm29.93 2.12c-7.14,-4.24 -1.29,-2.86 -9.98,-0.8 -0.89,-9.82 2.64,-4.24 -4.03,-9.54 7.45,-4.94 4.16,0.66 10,-7.97 4.38,6.6 1.08,4.52 9.39,6.02l-5.37 12.3zm-334.1 142.43l-0.62 0.57 0.95 -79.78 0.97 -98.24 2.42 0.03 173.54 -0.06c-8.13,20.52 -9.16,-3.82 -6.05,24.77 1.36,12.5 -11.53,8.26 3.72,17.62l30.09 -2.11 -8.65 15.06 9.97 7.18c-9.42,20.61 -0.06,29.64 13.09,43.49l22.84 0.38 -12.85 18.49 20.23 9.66c-1.6,4.8 -10.16,26 -9.4,29.09 3.47,14.28 15.2,-11.25 0.04,24.2l186.69 0.33 -0.39 -189.77 -426.53 0 -0.06 179.08z"/>
   <path class="fil2" d="M144.8 187.73c51.09,-0.05 105.55,1.84 156.21,-0.81 44.02,-2.3 99.49,-8.58 98.51,-56.16 -0.99,-48.35 -54.79,-51.47 -100.68,-54.62 -48.26,-3.31 -103.27,-1.25 -154.26,-1.34l0.22 112.91z"/>
   <path class="fil3" d="M1880.47 44l5.56 9.82c-34.93,6.99 -60.09,7.99 -94.56,18.39 -24.82,7.49 -63.38,24.03 -85.59,27.66l-0.95 79.78c19.14,-2.55 81.66,-30.19 105.9,-38.67 35.81,-12.54 74.93,-21.83 115.68,-26.19l-1.54 -7.17c-13.16,-13.85 -22.51,-22.88 -13.09,-43.49l-9.97 -7.18 8.65 -15.06 -30.09 2.11z"/>
   <path class="fil4" d="M1705.88 99.87c22.21,-3.63 60.78,-20.17 85.59,-27.66 34.47,-10.41 59.63,-11.41 94.56,-18.39l-5.56 -9.82c-15.25,-9.37 -2.35,-5.13 -3.72,-17.62 -3.11,-28.59 -2.08,-4.25 6.05,-24.77l-173.54 0.06 -2.42 -0.03 -0.97 98.24z"/>
   <path class="fil5" d="M1704.93 179.65l0.62 -0.57 0.53 9.88 239.76 0.48c15.16,-35.45 3.44,-9.91 -0.04,-24.2 -0.75,-3.09 7.8,-24.29 9.4,-29.09l-20.23 -9.66 12.85 -18.49 -22.84 -0.38 1.54 7.17c-40.75,4.36 -79.87,13.65 -115.68,26.19 -24.24,8.49 -86.76,36.12 -105.9,38.67z"/>
   <path class="fil0" d="M1018.85 253.95c18.52,-1.24 36,-0.68 35.76,19.87 -0.23,19.42 -17.07,18.61 -35.74,17.47l-0.02 -37.35zm36.04 56.11c29.54,-5.91 44.55,-44.15 22.25,-67.63 -17.79,-18.73 -60.56,-15 -91.05,-14.02l1.53 150.31 30.95 -0.03 1.34 -67.03 38.83 67.16 35.78 -0.91 -39.62 -67.86z"/>
   <path class="fil0" d="M1423.21 300.16c35.22,-10.77 42.8,46.56 14.95,55.22 -36.46,11.34 -45.21,-45.97 -14.95,-55.22zm-14.85 82.15l22.57 0 19.75 -14.51c10.52,12.79 -2.77,12.8 31.26,10.61l-0.83 -100.82c-30.83,-1.94 -21.34,-3.62 -28.36,12.47 -13.04,-10.1 -18.16,-19.65 -42.31,-14.83 -17.73,3.55 -26.63,13.06 -31.79,28.02 -5.37,15.58 -5.39,34.04 0.13,49.47 7.53,21.03 13.47,19.27 29.57,29.58z"/>
   <path class="fil0" d="M1712.53 302.86c36.23,-8.73 44.44,42.55 14.96,50.92 -36.49,10.35 -48.17,-42.92 -14.96,-50.92zm-7.49 79.44l28.33 0c23.66,-13.66 45.39,-20.53 41.45,-61.27 -2.62,-27.14 -23.5,-45.86 -53.41,-46.64 -31.21,-0.81 -54.65,18.13 -57.71,46.13 -4.57,41.68 18.01,48.07 41.34,61.78z"/>
   <path class="fil0" d="M2009.63 317.37l-43.01 0.16c2.86,-27.25 42.33,-23.99 43.01,-0.16zm-35.73 64.94l28.48 0c15.14,-8.67 23.92,-9.42 33.47,-25.98l-20.73 -10.82c-12.12,4.59 -43.08,28.01 -49.81,-9.81l74.57 0c5.16,-90.9 -118.49,-77.8 -103.24,6.64 4.94,27.33 18.68,28.97 37.26,39.97z"/>
   <path class="fil0" d="M1132.08 317.56c1.27,-25.33 41.14,-25.73 43.02,-0.22l-43.02 0.22zm7.64 64.74l25.74 0c16.95,-9.23 27.35,-7.82 35.48,-26.91l-21.95 -10.32c-11.26,5.29 -41.98,28.29 -48.58,-9.18l74.53 -1.48c5.24,-86.84 -116.63,-78.58 -103.26,7.39 4.2,27.01 19.14,29.71 38.05,40.5z"/>
   <path class="fil0" d="M1259.46 273.78c-0.04,-26.42 -3.52,-33.97 24.76,-32.17l-0.01 -21.4c-14.59,-5.74 -34.99,-3.25 -44.72,5.51 -11.37,10.24 -9.03,30.14 -8.61,49.61l-13.7 4.08 0.08 19.03c15.23,11.49 12.44,-25.22 14.55,80.34l27.5 -0.6 0.13 -72.34c2.97,-11.97 16.05,2.46 19.02,-9.87 5.01,-20.77 -8.27,-18.61 -8.41,-18.66l-10.6 -3.54z"/>
   <path class="fil0" d="M2080.76 382.3l25.92 0c22.09,-11.79 13.66,-1.92 29.3,-23.66l0 -17.14c-10.32,-14.15 -8.27,-15.02 -26.27,-21.74 -13.53,-5.05 -24.85,-5.7 -27.03,-18.28 12.8,-16.43 24.25,-2.51 33.57,2.94 9.02,-4.11 12.83,-4.79 17.75,-10.91 -12.94,-27.93 -67,-25.77 -77.11,2.39 -16.48,45.89 52.8,31.53 49.3,61.75 -23.99,9.95 -22.68,-2.39 -34.44,-7.5l-19.22 12.41c9,16.64 11.69,10.73 28.23,19.73z"/>
   <path class="fil0" d="M1542.25 382.3l26.54 0c16.35,-9.62 15.01,2.67 13.95,-36.23 -9.54,5.2 -15.57,12.67 -32.37,7.75 -23.11,-6.77 -23.85,-45.14 -0.19,-51.75 14.64,-4.09 23.43,3.44 32.98,6.48l-1.17 -27.92c-43.25,-27.43 -101.65,25.33 -72.1,76.6 8.58,14.88 15.94,16.19 32.36,25.08z"/>
   <path class="fil0" d="M1594.57 295.98c10.47,13.16 11.21,-1.46 13.95,9.87l1.13 72.82 27.84 -0.17c0.27,-105.38 -1.89,-68.47 14.32,-80.05l-0.4 -19.73c-9.63,-4.19 -5.1,2.26 -13.72,-4.93l-0.06 -29.83 -29.05 0.32 -0.02 32.69 -13.87 1.75 -0.13 17.27z"/>
   <path class="fil0" d="M1366.71 276.25c-25.79,-8.48 -32.98,9.52 -41.67,20.4l-1.18 -19.51 -27.17 0.88c-2.19,16.29 -0.66,42.47 -0.66,59.89 -0,28.12 -9.1,42.99 18.7,41.32 14.13,-0.85 11.4,-3.19 11.11,-18.89 -0.67,-37.08 -5.06,-62.35 38.8,-53.48l2.07 -30.6z"/>
   <path class="fil0" d="M1867.76 275.66c-26.3,-4.71 -32.35,6.15 -41.84,21.98l0.2 -20.41 -29.06 -0.02 1.68 101.56c38.76,-0.04 27.55,1.28 27.9,-40.94 0.23,-28.39 8.87,-37.63 38.87,-30.86l2.25 -31.31z"/>
   <path class="fil0" d="M1894.26 277.24c-16.41,0 -11.84,4.89 -11.57,23.59 1.25,85.43 -12.24,77.8 28.26,77.96 3.74,-12.36 3.21,-86.96 0.16,-101.61l-16.86 0.05z"/>
   <path class="fil2" d="M1423.21 300.16c-30.25,9.25 -21.51,66.56 14.95,55.22 27.84,-8.66 20.27,-65.99 -14.95,-55.22z"/>
   <path class="fil2" d="M1712.53 302.86c-33.21,8 -21.53,61.27 14.96,50.92 29.48,-8.37 21.28,-59.64 -14.96,-50.92z"/>
   <path class="fil2" d="M1018.87 291.29c18.67,1.14 35.51,1.95 35.74,-17.47 0.24,-20.56 -17.24,-21.12 -35.76,-19.87l0.02 37.35z"/>
   <path class="fil0" d="M1891.49 221.06c-22.52,8.88 -6.25,42.3 14.98,30.57 17.54,-9.7 5.78,-38.75 -14.98,-30.57z"/>
   <path class="fil2" d="M2009.63 317.37c-0.68,-23.83 -40.15,-27.09 -43.01,0.16l43.01 -0.16z"/>
   <path class="fil2" d="M1132.08 317.56l43.02 -0.22c-1.88,-25.51 -41.75,-25.11 -43.02,0.22z"/>
   <path class="fil2" d="M2106.68 382.3l29.3 0 0 -23.66c-15.64,21.74 -7.21,11.87 -29.3,23.66z"/>
   <path class="fil6" d="M2025.64 26.3c6.67,5.3 3.15,-0.28 4.03,9.54 8.69,-2.06 2.83,-3.44 9.98,0.8l5.37 -12.3c-8.31,-1.5 -5.01,0.58 -9.39,-6.02 -5.83,8.64 -2.55,3.03 -10,7.97z"/>
   <path class="fil6" d="M2060.26 152.19c6.92,5.7 3.05,0.58 4.15,9.27l9.7 -0.19c0.17,0.72 0.48,-0.31 0.53,-0.02l1.22 -3.54c1.26,-3.22 1.72,-3.93 4.03,-7.23 -11.9,-1.79 -4.91,1.08 -8.15,-5.55l-5.7 4.55c-1.31,0.8 -4.57,2.12 -5.77,2.72z"/>
   <path class="fil6" d="M2095.07 92.73c6.78,6.1 4.24,-1.99 3.53,10.85 5.55,-2.07 7.11,-1.71 12.87,0.42 -0.72,-8.79 -3.02,-3.14 2.41,-9.96 -3.03,-2.24 -4.24,-1.13 -7.83,-7.96 -4.43,5.08 -2.84,4.07 -10.98,6.64z"/>
   <path class="fil6" d="M1990.95 152.47c7.11,5.47 3.1,0.35 4.35,9.17l9.91 -0.98c2.44,-3.36 0.07,-0.27 1.03,-2.85l1.11 -2.79c0.04,-0.07 3.25,-4.44 3.26,-4.44 -5.21,-1.05 -0.81,1.12 -6.19,-1.96l-5.04 -3.94c-3.76,9.51 0.06,2.59 -8.43,7.81z"/>
   <path class="fil5" d="M2026.55 163.06c4.8,4.18 2.7,-4.46 2.94,7.87 6.3,-2 6.7,-2.2 11.96,0.75 -0.47,-5.84 -0.36,-6.75 2.9,-11.47 -5.61,-1.66 -6.08,-2.93 -9.1,-6.6 -2.73,4.35 -0.77,1.54 -2.97,3.87l-5.72 5.58z"/>
   <path class="fil6" d="M2086.19 128.35c5.55,4.33 4.59,0.89 3.16,9.65 6.41,-3.2 6.06,-3.12 12.37,-0.18 -0.53,-9.17 -3.07,-4.2 3.37,-10.91 -8.05,-3.27 -5.04,-0.35 -9.23,-7.7 -0.81,1.24 -2.71,4.17 -3.51,4.91l-6.16 4.24z"/>
   <path class="fil5" d="M2061.39 33.88c2.73,4.58 2.71,3.68 3.16,10.69l11.71 -0.6c-0.85,-4.67 -0.16,-5.29 2.84,-9.81 -7,-1.72 -5.18,-0.89 -8.91,-6.31 -3.69,5.37 -2.44,4.43 -8.8,6.04z"/>
   <path class="fil6" d="M1956.91 92.37c4.39,5.9 3.67,2.03 3.16,11.18 7.34,-2.92 4.53,-2.93 12.1,-0.37 -1.11,-6.96 0.22,-6.01 2.98,-11.09l-7.61 -3.29c-0.44,-0.26 -1.16,-0.92 -1.75,-1.37 -6.83,6.38 1.08,1.47 -8.88,4.95z"/>
   <path class="fil6" d="M1991.66 37.38c4.84,3.82 2.95,-0.17 3.17,7.64 12.47,-2.63 7.98,-0.78 14.89,-10.49 -6.18,-2.66 -5.61,-2.83 -9.39,-6.45 -0.12,0.15 -2.5,2.89 -2.8,3.21l-5.86 6.09z"/>
   <path class="fil6" d="M1966 126c4.82,6.68 3.62,0.98 2.97,11.62 8.39,-4.38 4.91,-3.25 13.17,-0.15 -2.35,-9.25 -2.8,-6.18 2.54,-11.15 -9.89,-2.56 -3.84,1.73 -8.19,-5.71 -3.85,3.24 -4.5,4.89 -10.49,5.39z"/>
   <path class="fil5" d="M2087.03 58.76c4.04,6.3 2.67,-0.68 3.38,11.38 5.7,-6.55 4.09,-3.85 10.91,-0.46 0.05,-7.52 0.03,-6.36 2.77,-11.3 -7.01,-1.72 -4.78,0.1 -7.55,-6.81 -6.23,7.03 -0.46,5.08 -9.51,7.19z"/>
   <path class="fil5" d="M1967.02 62.51c5.63,2.5 0.96,-1.29 2.89,4.09l2.51 0.95c0.26,0.06 1.09,0.26 1.42,0.34 2.29,0.54 4.42,0.69 7.48,1.7 0.08,-7.09 0.13,-6.18 2.47,-11.24 -6.68,-1.83 -3.73,0.15 -7.04,-4.73l-8.31 7.02c-0.41,0.45 -0.94,1.26 -1.43,1.87z"/>
  </g>
 </g>
</svg>
