<?xml version="1.0" encoding="UTF-8"?>
<!DOCTYPE svg PUBLIC "-//W3C//DTD SVG 1.1//EN" "http://www.w3.org/Graphics/SVG/1.1/DTD/svg11.dtd">
<!-- Creator: CorelDRAW 2021 (64-Bit) -->
<svg xmlns="http://www.w3.org/2000/svg" xml:space="preserve" width="115.702mm" height="66.1104mm" version="1.1" style="shape-rendering:geometricPrecision; text-rendering:geometricPrecision; image-rendering:optimizeQuality; fill-rule:evenodd; clip-rule:evenodd"
viewBox="0 0 9474.62 5413.66"
 xmlns:xlink="http://www.w3.org/1999/xlink"
 xmlns:xodm="http://www.corel.com/coreldraw/odm/2003">
 <defs>
  <style type="text/css">
   <![CDATA[
    .fil0 {fill:black;fill-rule:nonzero}
    .fil3 {fill:black;fill-rule:nonzero}
    .fil2 {fill:#339966;fill-rule:nonzero}
    .fil1 {fill:#339966;fill-rule:nonzero}
   ]]>
  </style>
 </defs>
 <g id="Layer_x0020_1">
  <metadata id="CorelCorpID_0Corel-Layer"/>
  <g id="_2332063333984">
   <path class="fil0" d="M8204.37 4530.16l0 -458.8c146.61,93.52 261,157.36 342.52,189.59 80.89,32.86 156.73,49.29 225.61,49.29 60.67,0 109.34,-13.27 145.99,-39.81 37.28,-26.54 55.61,-61.29 55.61,-104.91 0,-36.65 -12.64,-67.62 -38.55,-92.26 -25.91,-24.65 -70.78,-48.03 -133.34,-70.15l-214.87 -76.47c-140.29,-48.04 -247.1,-115.65 -319.77,-202.86 -72.68,-86.58 -108.7,-189.6 -108.7,-308.4 0,-167.48 58.77,-302.72 175.69,-404.46 117.54,-101.75 273.64,-152.93 468.92,-152.93 89.74,0 185.17,12.64 285.65,37.91 100.48,25.28 212.97,65.09 336.2,118.18l-72.68 405.09c-73.94,-62.57 -154.83,-111.86 -242.68,-147.25 -87.84,-36.02 -169.99,-53.72 -246.47,-53.72 -56.87,0 -103.01,13.27 -139.03,39.81 -36.02,26.54 -53.72,60.04 -53.72,100.48 0,34.75 10.11,61.93 30.34,82.16 20.22,20.22 65.72,42.34 135.87,65.72l200.33 72.05c156.73,55.61 269.22,122.59 336.21,201.59 67.62,79 101.12,182 101.12,309.67 0,183.9 -60.67,329.25 -181.37,436.05 -121.33,106.8 -285.65,159.89 -494.19,159.89 -101.75,0 -200.97,-12.64 -299.55,-37.91 -97.95,-25.28 -196.54,-64.46 -295.12,-117.55z"/>
   <polygon class="fil0" points="7991.16,4606 7403.43,4606 7403.43,2937.61 7991.16,2857.99 "/>
   <path class="fil0" d="M7376.88 2315.75c0,-89.1 30.97,-164.31 92.9,-225.61 61.3,-61.93 136.51,-92.9 225.61,-92.9 90.37,0 165.58,30.34 226.88,91.64 61.3,61.3 91.63,136.5 91.63,226.87 0,89.11 -30.97,164.95 -92.9,228.14 -61.3,62.56 -136.5,94.16 -225.61,94.16 -86.58,0 -161.15,-31.6 -224.35,-95.42 -62.56,-63.83 -94.16,-139.04 -94.16,-226.88z"/>
   <path class="fil0" d="M6019.82 4530.16l0 -458.8c146.61,93.52 261,157.36 342.52,189.59 80.89,32.86 156.73,49.29 225.61,49.29 60.67,0 109.34,-13.27 145.99,-39.81 37.28,-26.54 55.61,-61.29 55.61,-104.91 0,-36.65 -12.64,-67.62 -38.55,-92.26 -25.91,-24.65 -70.78,-48.03 -133.34,-70.15l-214.87 -76.47c-140.29,-48.04 -247.1,-115.65 -319.77,-202.86 -72.68,-86.58 -108.7,-189.6 -108.7,-308.4 0,-167.48 58.77,-302.72 175.69,-404.46 117.54,-101.75 273.64,-152.93 468.92,-152.93 89.74,0 185.17,12.64 285.65,37.91 100.48,25.28 212.97,65.09 336.2,118.18l-72.68 405.09c-73.94,-62.57 -154.83,-111.86 -242.68,-147.25 -87.84,-36.02 -169.99,-53.72 -246.47,-53.72 -56.87,0 -103.01,13.27 -139.03,39.81 -36.02,26.54 -53.72,60.04 -53.72,100.48 0,34.75 10.11,61.93 30.34,82.16 20.22,20.22 65.72,42.34 135.87,65.72l200.33 72.05c156.73,55.61 269.22,122.59 336.21,201.59 67.62,79 101.12,182 101.12,309.67 0,183.9 -60.67,329.25 -181.37,436.05 -121.33,106.8 -285.65,159.89 -494.19,159.89 -101.75,0 -200.97,-12.64 -299.55,-37.91 -97.95,-25.28 -196.54,-64.46 -295.12,-117.55z"/>
   <path class="fil0" d="M4912.36 4606l-599.73 -1668.39 625.65 0 268.58 860.73 331.15 -860.73 515.05 0 -1046.54 2476.04 -625.64 0c93.53,-89.11 180.74,-188.96 260.37,-300.82 79.63,-111.86 148.51,-231.3 206.01,-358.96l65.09 -147.88z"/>
   <polygon class="fil0" points="4319.34,4606 3731.62,4606 3731.62,1963.12 4319.34,1883.49 "/>
   <path class="fil0" d="M580.14 4606l-580.14 0 0 -2642.88 580.14 -79.63 0 1289.21c81.52,-94.8 168.73,-164.95 262.26,-211.08 92.9,-46.13 194.02,-69.51 302.72,-69.51 176.31,0 310.29,50.56 401.29,151.67 91.64,101.12 137.14,248.37 137.14,443.01l0 1119.21 -576.35 0 0 -956.17c0,-87.84 -17.7,-153.56 -53.72,-197.8 -35.38,-44.87 -88.47,-66.99 -159.26,-66.99 -100.48,0 -178.21,34.13 -232.56,101.75 -54.35,68.25 -81.52,166.84 -81.52,296.39l0 822.82z"/>
   <g>
    <g>
     <g>
      <path class="fil1" d="M2703.6 2693.11c-583.4,0 -1057.99,474.58 -1057.99,1057.99 0,542.9 848.81,1504.46 945.54,1612.38 28.72,31.74 69.53,50.18 112.45,50.18 42.93,0 83.73,-18.44 112.45,-50.18 96.73,-107.91 945.54,-1069.48 945.54,-1612.38 0,-583.4 -474.58,-1057.99 -1057.99,-1057.99zm0 2338.76c-330.09,-391.45 -755.7,-992.39 -755.7,-1280.77 0,-416.54 339.16,-755.7 755.7,-755.7 416.55,0 755.7,339.16 755.7,755.7 0,288.07 -425.61,889.32 -755.7,1280.77z"/>
     </g>
    </g>
    <g>
     <g>
      <path class="fil1" d="M2703.6 3297.68c-249.99,0 -453.42,203.43 -453.42,453.42 0,249.99 203.43,453.43 453.42,453.43 249.99,0 453.42,-203.44 453.42,-453.43 0,-249.99 -203.43,-453.42 -453.42,-453.42zm0 604.56c-83.43,0 -151.14,-67.71 -151.14,-151.14 0,-83.43 67.71,-151.14 151.14,-151.14 83.43,0 151.14,67.71 151.14,151.14 0,83.44 -67.71,151.14 -151.14,151.14z"/>
     </g>
    </g>
   </g>
   <g>
    <g>
     <path class="fil2" d="M8938.73 0l-1209.13 0c-83.44,0 -151.14,67.71 -151.14,151.14l0 906.85 0 604.56c0,83.44 67.71,151.14 151.14,151.14 83.43,0 151.14,-67.71 151.14,-151.14l0 -453.42 1057.99 0c83.43,0 151.14,-67.71 151.14,-151.14l0 -906.85c0,-83.43 -67.71,-151.14 -151.14,-151.14zm-151.14 906.85l-906.85 0 0 -604.56 906.85 0 0 604.56z"/>
    </g>
   </g>
   <g>
    <g>
     <path class="fil1" d="M4994.79 1432.97l1316.29 0c145.06,0 263.25,-118.21 263.25,-263.26 0,-145.05 -118.2,-263.25 -263.25,-263.25l-287.48 0c-54.5,152.95 -199.28,263.25 -370.67,263.25 -217.72,0 -394.89,-177.16 -394.89,-394.88 0,-217.72 177.17,-394.89 394.89,-394.89 171.38,0 316.17,110.3 370.67,263.26l287.48 0c290.38,0 526.52,236.14 526.52,526.51 0,290.38 -236.14,526.52 -526.52,526.52l-1316.29 0c-145.06,0 -263.26,118.21 -263.26,263.26 0,145.06 118.21,263.25 263.26,263.25l2393.53 0c54.5,-152.95 199.29,-263.25 370.67,-263.25 217.72,0 394.89,177.17 394.89,394.88 0,217.72 -177.17,394.89 -394.89,394.89 -171.38,0 -316.17,-110.3 -370.67,-263.25l-2393.53 0c-290.38,0 -526.52,-236.14 -526.52,-526.52 0,-290.38 236.14,-526.52 526.52,-526.52zm658.14 -789.77c-72.66,0 -131.63,58.97 -131.63,131.63 0,72.66 58.97,131.63 131.63,131.63 72.66,0 131.63,-58.97 131.63,-131.63 0,-72.66 -58.97,-131.63 -131.63,-131.63zm2106.06 1842.8c72.66,0 131.63,-58.98 131.63,-131.64 0,-72.66 -58.97,-131.63 -131.63,-131.63 -72.66,0 -131.63,58.97 -131.63,131.63 0,72.66 58.97,131.64 131.63,131.64z"/>
    </g>
   </g>
   <g>
    <path class="fil3" d="M0.01 238.31l1217.32 0 0 163.35 -591.17 0 0 1127.88 -186.68 0 0 -1127.88 -439.48 0 0 -163.35zm902.29 443.37l0 194.46 11.67 -15.56c81.68,-128.34 159.46,-178.9 241.14,-178.9 66.12,0 132.23,15.56 198.35,77.79l-85.56 147.79c-58.34,-54.45 -112.78,-81.68 -163.34,-81.68 -54.46,0 -101.12,27.23 -140.01,77.79 -42.79,50.56 -62.23,112.78 -62.23,182.79l0 443.37 -167.24 0 0 -847.85 167.24 0 -0.01 0zm863.41 847.84l0 -105.01c-38.9,35 -77.79,66.12 -124.45,89.45 -46.68,19.45 -89.45,31.12 -136.12,31.12 -54.46,0 -105.01,-11.67 -147.79,-38.89 -46.68,-27.23 -81.68,-62.23 -105.01,-108.9 -23.33,-46.67 -35,-124.45 -35,-229.46l0 -486.15 171.12 0 0 486.15c0,85.56 11.67,151.68 38.9,186.68 23.33,35.01 70.01,50.56 132.23,50.56 81.68,0 147.79,-38.89 206.13,-116.67l0 -606.72 167.23 0 0 847.85 -167.23 0 0 -0.01zm171.12 -847.84l0 108.89c73.9,-85.56 159.46,-108.89 256.69,-108.89 50.56,0 101.12,-3.89 143.9,23.33 46.67,27.23 81.67,66.12 105.01,112.79 23.34,46.67 35.01,124.45 35.01,225.57l0 486.15 -167.24 0 0 -482.26c0,-89.45 -11.67,-147.79 -38.89,-186.68 -27.23,-38.89 -70.01,-54.45 -132.23,-54.45 -81.68,0 -147.79,38.89 -202.24,116.67l0 606.72 -171.13 0 0 -847.84 171.13 0 -0.01 0zm960.64 863.4l-3.89 15.56c35.01,7.78 58.35,23.34 77.79,46.67 19.45,23.34 27.23,50.57 27.23,77.79 0,46.68 -15.56,85.56 -54.45,120.56 -38.9,31.12 -97.23,46.68 -178.91,46.68 -23.33,0 -42.78,0 -62.23,-3.89l0 -105.01c31.12,3.89 50.57,3.89 58.35,3.89 35,0 62.23,-3.89 81.67,-19.44 11.67,-7.78 19.45,-19.45 19.45,-31.12 0,-15.56 -7.78,-27.23 -19.45,-35.01 -11.66,-11.67 -35,-15.55 -70,-15.55 -7.78,0 -11.67,0 -19.45,0l38.89 -112.79c-77.79,-15.55 -151.68,-58.34 -217.8,-124.45 -66.12,-66.12 -101.12,-167.24 -101.12,-299.47 0,-132.23 38.89,-241.13 116.67,-322.8 77.79,-81.68 178.9,-105.01 303.36,-105.01 112.78,0 136.12,-7.78 245.02,42.78l0 178.9c-85.56,-54.45 -163.34,-81.68 -237.24,-81.68 -73.9,0 -136.12,27.23 -186.69,77.79 -46.67,54.46 -70.01,124.46 -70.01,206.13 0,85.56 23.34,155.57 77.79,206.13 54.45,50.57 124.45,77.79 213.91,77.79 62.23,0 136.12,-19.45 221.69,-58.34l0 167.24c-85.56,31.11 -167.24,46.67 -248.91,46.67l-11.67 0 -0.01 0z"/>
    <path class="fil1" d="M3150.28 973.37c0,-89.45 35,-159.45 101.12,-213.9 66.12,-50.57 155.57,-77.79 268.36,-77.79l350.03 0 0 132.23 -171.12 0c35,31.11 58.34,62.23 70.01,89.45 11.67,27.23 19.44,62.23 19.44,97.23 0,42.78 -11.66,85.56 -38.89,128.34 -23.34,42.78 -58.34,77.79 -97.23,101.12 -38.89,19.44 -105.01,38.89 -194.46,54.45 -62.23,7.78 -93.34,31.12 -93.34,66.12 0,19.45 11.67,35.01 35,46.67 23.34,11.67 66.12,27.23 128.34,38.9 105.01,23.33 171.13,42.78 198.36,54.45 31.11,11.67 58.34,31.12 81.68,54.45 42.78,42.79 62.23,93.34 62.23,155.57 0,77.79 -35.01,143.9 -108.9,190.57 -70.01,50.56 -167.23,73.9 -287.8,73.9 -120.56,0 -217.8,-27.23 -287.8,-73.9 -73.89,-46.67 -108.89,-112.78 -108.89,-194.46 0,-116.67 70.01,-190.57 213.91,-221.69 -58.34,-38.89 -85.56,-73.9 -85.56,-108.89 0,-27.23 11.67,-50.57 35.01,-73.9 23.34,-23.34 58.34,-38.9 97.23,-50.57 -124.46,-54.45 -186.69,-143.89 -186.69,-268.36l0 0zm315.02 -147.78c-42.78,0 -81.68,15.55 -116.67,46.67 -31.12,31.11 -46.67,70.01 -46.67,112.78 0,42.79 15.55,77.79 46.67,108.9 31.12,27.22 73.9,42.78 120.56,42.78 46.68,0 3.89,-15.56 35.01,-46.67 31.11,-27.23 46.67,-66.12 46.67,-108.9 0,-42.78 -15.56,-81.68 -46.67,-108.89 -35.01,-31.12 11.67,-46.67 -38.9,-46.67l0 0zm-38.89 746.73c-54.46,0 -101.12,11.67 -140.01,35 -35.01,23.34 -50.57,54.46 -50.57,93.34 0,85.56 77.79,128.34 233.36,128.34 73.9,0 132.23,-11.67 175.02,-31.11 38.89,-23.34 62.23,-54.46 62.23,-93.34 0,-38.9 -27.23,-70.01 -77.79,-97.23 -54.46,-23.33 -120.57,-35 -202.24,-35zm505.59 -1248.44c31.12,0 54.46,7.78 73.9,27.23 19.45,19.44 27.23,42.78 27.23,70.01 0,27.22 -7.78,50.56 -27.23,70.01 -19.44,19.44 -42.78,31.11 -73.9,31.11 -23.33,0 -46.67,-11.67 -66.12,-31.11 -19.44,-19.45 -31.11,-42.79 -31.11,-70.01 0,-23.34 11.67,-46.68 31.11,-66.12 19.45,-23.34 42.79,-31.12 66.12,-31.12zm-81.67 357.81l167.23 0 0 847.85 -167.23 0 0 -847.85zm260.58 -443.37l167.23 0 0 1291.23 -167.23 0 0 -1291.23z"/>
   </g>
  </g>
 </g>
</svg>
